<?xml version="1.0" encoding="utf-8"?>
<!-- Generator: Adobe Illustrator 17.0.0, SVG Export Plug-In . SVG Version: 6.00 Build 0)  -->
<!DOCTYPE svg PUBLIC "-//W3C//DTD SVG 1.1//EN" "http://www.w3.org/Graphics/SVG/1.1/DTD/svg11.dtd">
<svg version="1.1" id="Layer_1" xmlns="http://www.w3.org/2000/svg" xmlns:xlink="http://www.w3.org/1999/xlink" x="0px" y="0px"
	 width="105px" height="75px" viewBox="0 0 105 75" enable-background="new 0 0 105 75" xml:space="preserve">
<g>
	<g>
		<g>
			<path fill="#535557" d="M53.6,47.094c-10.55,0-19.133-8.583-19.133-19.133c0-10.55,8.583-19.132,19.133-19.132
				c10.55,0,19.132,8.583,19.132,19.132C72.732,38.511,64.15,47.094,53.6,47.094z M53.6,9.481c-10.19,0-18.481,8.29-18.481,18.48
				c0,10.19,8.291,18.481,18.481,18.481c10.19,0,18.48-8.29,18.48-18.481C72.08,17.771,63.79,9.481,53.6,9.481z"/>
		</g>
		<g>
			<path fill="#535557" d="M53.6,44.767c-9.267,0-16.806-7.539-16.806-16.806c0-9.267,7.539-16.806,16.806-16.806
				c9.267,0,16.806,7.539,16.806,16.806C70.406,37.228,62.867,44.767,53.6,44.767z M53.6,11.807
				c-8.907,0-16.154,7.247-16.154,16.154S44.693,44.115,53.6,44.115c8.907,0,16.154-7.247,16.154-16.154S62.507,11.807,53.6,11.807z
				"/>
		</g>
		<g>
			<path fill="#535557" d="M52.252,54.561c-0.06,0-0.12-0.002-0.18-0.005c-1.15-0.06-2.186-0.689-2.772-1.68l-0.362-0.614
				c-0.497-0.842-1.413-1.364-2.392-1.364c-0.475,0-0.946,0.124-1.361,0.359l-0.621,0.35c-0.981,0.554-2.235,0.581-3.24,0.069
				c-1.026-0.523-1.717-1.518-1.848-2.662l-0.082-0.708c-0.171-1.489-1.503-2.592-3.02-2.445l-0.709,0.067
				c-1.153,0.109-2.267-0.363-2.989-1.255c-0.725-0.895-0.951-2.085-0.606-3.184l0.214-0.68c0.45-1.432-0.341-2.985-1.764-3.462
				l-0.676-0.227c-1.091-0.366-1.921-1.249-2.219-2.361c-0.298-1.112-0.021-2.292,0.742-3.155l0.472-0.534
				c0.994-1.125,0.902-2.866-0.204-3.88l-0.525-0.482c-0.848-0.779-1.247-1.923-1.067-3.06c0.179-1.137,0.912-2.102,1.96-2.581
				l0.649-0.296c1.365-0.623,1.99-2.251,1.392-3.627L30.76,16.49c-0.458-1.058-0.357-2.265,0.27-3.23
				c0.627-0.966,1.689-1.549,2.841-1.56l0.713-0.007c1.501-0.015,2.733-1.247,2.747-2.748l0.007-0.713
				c0.011-1.151,0.594-2.213,1.56-2.841c0.953-0.619,2.188-0.722,3.23-0.27l0.654,0.284c0.351,0.153,0.722,0.23,1.103,0.23
				c1.084,0,2.075-0.637,2.525-1.622l0.295-0.648c0.479-1.048,1.444-1.781,2.581-1.961c1.125-0.178,2.293,0.23,3.06,1.067
				l0.482,0.525c0.524,0.571,1.269,0.899,2.045,0.899c0.676,0,1.328-0.247,1.836-0.695l0.534-0.472
				c0.851-0.751,2.057-1.036,3.155-0.741c1.112,0.298,1.995,1.128,2.362,2.219l0.226,0.676c0.38,1.132,1.436,1.892,2.629,1.892
				c0.281,0,0.562-0.043,0.833-0.129l0.68-0.213c1.082-0.339,2.305-0.105,3.184,0.606c0.895,0.725,1.364,1.842,1.254,2.989
				l-0.068,0.709c-0.142,1.494,0.955,2.849,2.446,3.02l0.708,0.082c1.144,0.132,2.14,0.822,2.662,1.848
				c0.523,1.026,0.497,2.238-0.069,3.241l-0.35,0.62c-0.737,1.307-0.287,2.991,1.006,3.754l0.614,0.362
				c0.992,0.586,1.62,1.622,1.68,2.772c0.06,1.15-0.456,2.246-1.381,2.932l-0.572,0.424c-1.205,0.894-1.478,2.615-0.608,3.838
				l0.414,0.581c0.668,0.939,0.82,2.141,0.407,3.215c-0.413,1.075-1.33,1.866-2.454,2.116l-0.695,0.155
				c-1.465,0.326-2.414,1.788-2.116,3.259l0.142,0.698c0.228,1.129-0.122,2.289-0.936,3.104c-0.647,0.647-1.507,1.004-2.423,1.004
				c-0.228,0-0.456-0.023-0.68-0.068l-0.699-0.142c-0.183-0.037-0.369-0.056-0.554-0.056c-1.287,0-2.425,0.913-2.705,2.172
				l-0.155,0.696c-0.25,1.124-1.041,2.042-2.116,2.454c-1.062,0.408-2.288,0.252-3.215-0.407l-0.581-0.414
				c-0.473-0.337-1.028-0.515-1.607-0.515c-0.876,0-1.71,0.42-2.231,1.122l-0.424,0.572C54.36,54.043,53.331,54.561,52.252,54.561z
				 M46.546,50.245c1.208,0,2.34,0.646,2.953,1.685l0.362,0.614c0.474,0.803,1.313,1.312,2.245,1.361
				c0.049,0.003,0.106,0.007,0.146,0.004c0.874,0,1.707-0.42,2.228-1.122l0.424-0.572c0.644-0.868,1.674-1.386,2.755-1.386
				c0.715,0,1.401,0.22,1.985,0.636l0.581,0.413c0.751,0.534,1.743,0.66,2.603,0.33c0.87-0.334,1.511-1.077,1.714-1.988l0.155-0.696
				c0.346-1.554,1.751-2.682,3.341-2.682c0.228,0,0.458,0.023,0.683,0.069l0.699,0.141c0.91,0.184,1.858-0.103,2.512-0.757
				c0.659-0.659,0.942-1.599,0.757-2.513l-0.142-0.698c-0.368-1.816,0.805-3.622,2.614-4.025l0.695-0.155
				c0.911-0.203,1.653-0.843,1.988-1.714c0.334-0.87,0.211-1.843-0.329-2.603l-0.414-0.581c-1.075-1.51-0.738-3.636,0.75-4.74
				l0.572-0.424c0.749-0.555,1.168-1.443,1.118-2.374c-0.049-0.931-0.557-1.77-1.36-2.245l-0.614-0.362
				c-1.596-0.943-2.153-3.022-1.242-4.636l0.35-0.62c0.459-0.812,0.48-1.793,0.057-2.624c-0.423-0.831-1.229-1.39-2.156-1.496
				l-0.708-0.082c-1.841-0.211-3.196-1.885-3.02-3.73l0.068-0.709c0.089-0.929-0.291-1.833-1.016-2.42
				c-0.712-0.576-1.703-0.765-2.578-0.491l-0.68,0.213c-0.335,0.105-0.681,0.159-1.028,0.159c-1.474,0-2.778-0.939-3.248-2.337
				l-0.226-0.676c-0.297-0.884-1.012-1.556-1.913-1.797c-0.889-0.238-1.866-0.008-2.554,0.6l-0.534,0.472
				c-0.627,0.554-1.432,0.859-2.267,0.859c-0.958,0-1.878-0.405-2.525-1.11l-0.482-0.525c-0.622-0.678-1.568-1.008-2.478-0.864
				c-0.921,0.146-1.702,0.739-2.09,1.587l-0.295,0.648c-0.556,1.217-1.78,2.004-3.118,2.004c-0.47,0-0.928-0.096-1.362-0.284
				L41.869,5.72c-0.844-0.366-1.844-0.282-2.616,0.219c-0.782,0.508-1.254,1.368-1.263,2.3l-0.007,0.713
				c-0.018,1.853-1.54,3.375-3.393,3.393l-0.713,0.007c-0.933,0.009-1.792,0.481-2.3,1.263c-0.508,0.782-0.59,1.759-0.219,2.616
				l0.283,0.654c0.738,1.7-0.033,3.71-1.72,4.48l-0.648,0.296c-0.848,0.388-1.442,1.169-1.587,2.089
				c-0.146,0.921,0.177,1.848,0.864,2.478l0.525,0.482c1.366,1.253,1.479,3.403,0.252,4.792l-0.472,0.534
				c-0.618,0.699-0.842,1.654-0.6,2.554c0.241,0.901,0.913,1.616,1.797,1.912l0.676,0.227c1.757,0.59,2.734,2.508,2.178,4.276
				l-0.214,0.68c-0.28,0.889-0.096,1.853,0.491,2.578c0.585,0.722,1.486,1.106,2.42,1.016l0.709-0.067
				c1.875-0.177,3.518,1.181,3.729,3.02l0.082,0.708c0.106,0.926,0.666,1.732,1.496,2.155c0.813,0.415,1.829,0.393,2.624-0.056
				l0.621-0.35C45.378,50.399,45.96,50.245,46.546,50.245z"/>
		</g>
		<g>
			<path fill="#535557" d="M58.019,39.324H52.33V25.931h-6.509l6.667-9.333h5.531V39.324z M52.982,38.672h4.385V17.25h-4.543
				l-5.735,8.029h5.893V38.672z"/>
		</g>
		<g>
			<g>
				<g>
					<path fill="#535557" d="M43.26,49.274c-0.057,0-0.115-0.015-0.168-0.047c-0.154-0.093-0.204-0.293-0.111-0.447l1.213-2.019
						c0.093-0.155,0.293-0.204,0.448-0.111c0.154,0.093,0.204,0.293,0.111,0.447l-1.213,2.019
						C43.479,49.218,43.371,49.274,43.26,49.274z"/>
				</g>
			</g>
			<g>
				<g>
					<path fill="#535557" d="M35.541,43.272c-0.103,0-0.204-0.048-0.267-0.139c-0.103-0.148-0.067-0.351,0.08-0.454l1.929-1.351
						c0.147-0.103,0.351-0.068,0.454,0.08c0.103,0.148,0.068,0.351-0.08,0.454l-1.929,1.351
						C35.671,43.253,35.605,43.272,35.541,43.272z"/>
				</g>
			</g>
			<g>
				<g>
					<path fill="#535557" d="M30.927,34.648c-0.153,0-0.289-0.108-0.32-0.264c-0.034-0.177,0.081-0.348,0.258-0.382l2.312-0.451
						c0.175-0.035,0.348,0.081,0.382,0.258c0.034,0.177-0.081,0.348-0.258,0.382l-2.312,0.451
						C30.968,34.646,30.947,34.648,30.927,34.648z"/>
				</g>
			</g>
			<g>
				<g>
					<path fill="#535557" d="M32.516,25.422c-0.024,0-0.049-0.003-0.074-0.008l-2.295-0.529c-0.175-0.04-0.285-0.216-0.245-0.391
						c0.04-0.175,0.216-0.284,0.391-0.245l2.295,0.529c0.175,0.04,0.285,0.216,0.245,0.391
						C32.799,25.32,32.665,25.422,32.516,25.422z"/>
				</g>
			</g>
			<g>
				<g>
					<path fill="#535557" d="M35.425,17.112c-0.068,0-0.137-0.021-0.196-0.066l-1.882-1.417c-0.144-0.108-0.173-0.313-0.064-0.457
						c0.108-0.144,0.312-0.173,0.457-0.064l1.882,1.417c0.144,0.108,0.173,0.313,0.064,0.457
						C35.622,17.067,35.524,17.112,35.425,17.112z"/>
				</g>
			</g>
			<g>
				<g>
					<path fill="#535557" d="M41.463,10.703c-0.115,0-0.226-0.06-0.286-0.168l-1.143-2.06c-0.087-0.157-0.03-0.356,0.127-0.443
						c0.158-0.087,0.356-0.03,0.444,0.127l1.143,2.06c0.087,0.157,0.03,0.356-0.127,0.443C41.571,10.69,41.517,10.703,41.463,10.703
						z"/>
				</g>
			</g>
			<g>
				<g>
					<path fill="#535557" d="M49.585,7.304c-0.167,0-0.309-0.128-0.324-0.298l-0.206-2.347c-0.016-0.179,0.117-0.337,0.296-0.353
						c0.183-0.012,0.337,0.117,0.353,0.296l0.206,2.347c0.016,0.179-0.117,0.337-0.296,0.353
						C49.604,7.303,49.594,7.304,49.585,7.304z"/>
				</g>
			</g>
			<g>
				<g>
					<path fill="#535557" d="M58.389,7.502c-0.035,0-0.071-0.006-0.106-0.018c-0.17-0.059-0.261-0.244-0.202-0.414l0.766-2.228
						c0.059-0.17,0.244-0.261,0.414-0.202c0.17,0.059,0.261,0.244,0.202,0.414l-0.766,2.228C58.65,7.417,58.524,7.502,58.389,7.502z
						"/>
				</g>
			</g>
			<g>
				<g>
					<path fill="#535557" d="M66.349,11.263c-0.08,0-0.16-0.029-0.222-0.088c-0.132-0.123-0.139-0.329-0.016-0.461l1.607-1.724
						c0.123-0.132,0.33-0.139,0.461-0.016c0.132,0.123,0.139,0.329,0.016,0.461l-1.607,1.724
						C66.523,11.228,66.436,11.263,66.349,11.263z"/>
				</g>
			</g>
			<g>
				<g>
					<path fill="#535557" d="M72.092,17.938c-0.127,0-0.247-0.074-0.3-0.199c-0.071-0.166,0.007-0.357,0.172-0.428l2.168-0.922
						c0.165-0.071,0.357,0.006,0.428,0.172c0.071,0.166-0.007,0.357-0.172,0.428l-2.168,0.922
						C72.178,17.93,72.135,17.938,72.092,17.938z"/>
				</g>
			</g>
			<g>
				<g>
					<path fill="#535557" d="M76.979,26.411c-0.002,0-0.004,0-0.005,0l-2.355-0.039c-0.18-0.003-0.323-0.151-0.321-0.331
						c0.003-0.178,0.148-0.321,0.326-0.321c0.002,0,0.003,0,0.005,0l2.355,0.039c0.18,0.003,0.323,0.151,0.321,0.331
						C77.302,26.268,77.157,26.411,76.979,26.411z"/>
				</g>
			</g>
			<g>
				<g>
					<path fill="#535557" d="M75.643,36.1c-0.046,0-0.093-0.01-0.137-0.03l-2.137-0.994c-0.163-0.076-0.234-0.27-0.158-0.433
						c0.075-0.163,0.269-0.234,0.433-0.158l2.137,0.994c0.163,0.076,0.234,0.27,0.158,0.433C75.883,36.03,75.765,36.1,75.643,36.1z"
						/>
				</g>
			</g>
			<g>
				<g>
					<path fill="#535557" d="M70.48,44.406c-0.091,0-0.181-0.038-0.246-0.112l-1.548-1.777c-0.118-0.136-0.104-0.342,0.031-0.46
						c0.135-0.118,0.342-0.105,0.46,0.032l1.548,1.777c0.118,0.136,0.104,0.342-0.032,0.46C70.633,44.38,70.557,44.406,70.48,44.406
						z"/>
				</g>
			</g>
			<g>
				<g>
					<path fill="#535557" d="M62.385,49.896c-0.14,0-0.269-0.09-0.312-0.231l-0.69-2.252c-0.053-0.172,0.044-0.355,0.216-0.407
						c0.172-0.053,0.354,0.044,0.407,0.216l0.69,2.252c0.053,0.172-0.044,0.355-0.216,0.407
						C62.448,49.891,62.416,49.896,62.385,49.896z"/>
				</g>
			</g>
			<g>
				<g>
					<path fill="#535557" d="M52.759,51.618c-0.013,0-0.026-0.001-0.039-0.002c-0.179-0.022-0.306-0.184-0.285-0.363l0.284-2.339
						c0.022-0.179,0.187-0.306,0.363-0.284c0.179,0.022,0.306,0.184,0.285,0.363l-0.284,2.339
						C53.062,51.497,52.922,51.618,52.759,51.618z"/>
				</g>
			</g>
		</g>
		<g>
			<path fill="#535557" d="M64.256,22.77c-0.118,0-0.232-0.064-0.29-0.176c-0.688-1.325-1.612-2.493-2.745-3.472
				c-0.136-0.118-0.152-0.323-0.034-0.46c0.117-0.137,0.324-0.151,0.46-0.034c1.197,1.033,2.172,2.266,2.898,3.665
				c0.083,0.16,0.021,0.357-0.139,0.44C64.358,22.758,64.306,22.77,64.256,22.77z"/>
		</g>
		<g>
			<path fill="#535557" d="M48.584,39.188c-0.046,0-0.092-0.01-0.136-0.03c-2.658-1.225-4.8-3.362-6.033-6.017
				c-0.076-0.163-0.005-0.357,0.159-0.433c0.163-0.076,0.358-0.004,0.433,0.159c1.167,2.515,3.197,4.539,5.714,5.699
				c0.163,0.075,0.235,0.269,0.16,0.433C48.825,39.118,48.707,39.188,48.584,39.188z"/>
		</g>
	</g>
	<g>
		<path fill="#535557" d="M51.828,73.227l-6.948-6.206l-8.06,4.675l2.32-22.674v-1.704c0-0.18,0.146-0.326,0.326-0.326
			s0.326,0.146,0.326,0.326l-0.001,1.754L37.599,70.49l7.363-4.27l6.348,5.669l1.835-17.942c0.018-0.179,0.183-0.311,0.358-0.291
			c0.179,0.018,0.309,0.178,0.291,0.357L51.828,73.227z"/>
	</g>
	<g>
		<path fill="#535557" d="M49.63,66.295c-0.011,0-0.022,0-0.033-0.002c-0.179-0.018-0.31-0.178-0.291-0.358l1.003-9.816
			c0.018-0.179,0.182-0.309,0.358-0.291c0.179,0.018,0.309,0.178,0.291,0.357l-1.003,9.816C49.937,66.17,49.795,66.295,49.63,66.295
			z"/>
	</g>
	<g>
		<path fill="#535557" d="M40.348,65.28c-0.011,0-0.022,0-0.033-0.002c-0.179-0.018-0.309-0.178-0.291-0.357l1.003-9.816
			c0.018-0.179,0.181-0.31,0.358-0.291c0.179,0.018,0.309,0.178,0.291,0.357l-1.003,9.816C40.655,65.155,40.514,65.28,40.348,65.28z
			"/>
	</g>
	<g>
		<path fill="#535557" d="M55.278,69.147l-0.796-16.154c-0.009-0.18,0.13-0.333,0.31-0.342c0.174-0.008,0.333,0.13,0.342,0.31
			l0.733,14.877l6.636-5.331l7.131,4.648L68.647,47.31c-0.009-0.18,0.13-0.333,0.309-0.342c0.174-0.014,0.333,0.129,0.342,0.309
			l1.049,21.122l-7.805-5.088L55.278,69.147z"/>
	</g>
	<g>
		<path fill="#535557" d="M67.112,61.049c-0.173,0-0.317-0.135-0.325-0.31l-0.437-8.8c-0.009-0.18,0.13-0.333,0.309-0.342
			c0.184-0.012,0.333,0.13,0.342,0.309l0.437,8.8c0.009,0.18-0.13,0.333-0.309,0.342C67.123,61.049,67.117,61.049,67.112,61.049z"/>
	</g>
	<g>
		<path fill="#535557" d="M57.912,64.264c-0.173,0-0.317-0.135-0.325-0.31l-0.437-8.799c-0.009-0.18,0.13-0.333,0.309-0.342
			c0.177-0.012,0.333,0.13,0.342,0.309l0.437,8.799c0.009,0.18-0.13,0.333-0.309,0.342C57.923,64.263,57.917,64.264,57.912,64.264z"
			/>
	</g>
</g>
</svg>
