<?xml version="1.0" encoding="utf-8"?>
<!-- Generator: Adobe Illustrator 17.0.0, SVG Export Plug-In . SVG Version: 6.00 Build 0)  -->
<!DOCTYPE svg PUBLIC "-//W3C//DTD SVG 1.1//EN" "http://www.w3.org/Graphics/SVG/1.1/DTD/svg11.dtd">
<svg version="1.1" id="Layer_1" xmlns="http://www.w3.org/2000/svg" xmlns:xlink="http://www.w3.org/1999/xlink" x="0px" y="0px"
	 width="105px" height="75px" viewBox="0 0 105 75" enable-background="new 0 0 105 75" xml:space="preserve">
<g>
	<g>
		<g>
			<path fill="#545657" d="M19.224,48.161c-0.134,0-0.262-0.078-0.318-0.21c-4.221-9.848-3.208-21.085,2.709-30.059
				C27.526,8.928,37.457,3.575,48.18,3.575c8.274,0,16.112,3.159,22.07,8.894c5.942,5.719,9.397,13.4,9.731,21.626
				c0.008,0.191-0.141,0.352-0.332,0.36c-0.197,0.018-0.352-0.141-0.36-0.332C78.611,17.382,64.946,4.268,48.18,4.268
				c-10.49,0-20.205,5.235-25.987,14.005c-5.789,8.779-6.779,19.771-2.651,29.405c0.075,0.175-0.006,0.379-0.182,0.454
				C19.316,48.152,19.269,48.161,19.224,48.161z"/>
		</g>
		<g>
			<path fill="#545657" d="M44.507,4.485c-0.03,0-0.061-0.004-0.091-0.012c-0.185-0.05-0.293-0.241-0.243-0.425
				C44.677,2.199,46.248,1.003,48.175,1c0.002,0,0.004,0,0.006,0c1.923,0,3.495,1.193,4.005,3.042
				c0.051,0.184-0.057,0.375-0.242,0.426c-0.185,0.05-0.375-0.057-0.426-0.242c-0.516-1.87-2.12-2.534-3.338-2.534
				c-0.002,0-0.003,0-0.005,0c-1.219,0.002-2.824,0.667-3.335,2.538C44.799,4.384,44.659,4.485,44.507,4.485z"/>
		</g>
		<g>
			<path fill="#545657" d="M47.065,65.571c-2.162,0-3.62-0.682-5.144-1.707c-0.159-0.107-0.201-0.322-0.094-0.48
				c0.107-0.159,0.322-0.201,0.48-0.094c1.46,0.981,2.765,1.589,4.758,1.589c4.36,0,7.908-3.547,7.908-7.907
				c0-0.191,0.155-0.346,0.346-0.346c0.191,0,0.346,0.155,0.346,0.346C55.665,61.714,51.807,65.571,47.065,65.571z"/>
		</g>
		<g>
			<path fill="#545657" d="M55.319,57.318c-0.191,0-0.346-0.155-0.346-0.346V37.667c0-0.191,0.155-0.346,0.346-0.346
				c0.191,0,0.346,0.155,0.346,0.346v19.305C55.665,57.163,55.51,57.318,55.319,57.318z"/>
		</g>
		<g>
			<path fill="#545657" d="M42.613,64.266c-0.068,0-0.136-0.02-0.196-0.061L19.028,48.1c-0.158-0.108-0.197-0.324-0.089-0.481
				c0.108-0.158,0.324-0.198,0.481-0.089l23.39,16.105c0.158,0.108,0.197,0.324,0.089,0.481
				C42.832,64.213,42.723,64.266,42.613,64.266z"/>
		</g>
		<g>
			<path fill="#545657" d="M90.493,40.929c-0.147,0-0.307-0.018-0.479-0.058c-11.513-2.642-21.212-2.847-34.696-2.858
				c-0.191,0-0.346-0.155-0.346-0.347c0-0.191,0.155-0.346,0.346-0.346h0c13.531,0.011,23.266,0.217,34.85,2.876
				c0.532,0.122,0.909-0.052,1.035-0.478c0.137-0.465-0.09-1.078-0.707-1.302l-10.98-3.983c-0.18-0.065-0.273-0.264-0.207-0.444
				c0.065-0.18,0.265-0.271,0.443-0.208l10.98,3.983c1.001,0.362,1.363,1.377,1.136,2.148C91.72,40.418,91.278,40.929,90.493,40.929
				z"/>
		</g>
		<g>
			<path fill="#545657" d="M54.642,73.504h-4.566v-8.992c0-0.191,0.155-0.346,0.346-0.346c0.191,0,0.346,0.155,0.346,0.346v8.299
				h3.182V60.954c0-0.191,0.155-0.346,0.346-0.346c0.191,0,0.346,0.155,0.346,0.346V73.504z"/>
		</g>
		<g>
			<path fill="#545657" d="M29.996,49.1c-0.009,0-0.018,0-0.027-0.001c-0.191-0.015-0.333-0.181-0.318-0.372
				c0.505-6.54,4.193-14.444,18.898-14.965c0.19-0.008,0.352,0.143,0.358,0.334c0.007,0.191-0.143,0.351-0.334,0.358
				c-14.194,0.502-17.749,8.068-18.232,14.326C30.327,48.963,30.175,49.1,29.996,49.1z"/>
		</g>
		<g>
			<path fill="#545657" d="M46.17,58.822c-0.635,0-1.245-0.191-1.767-0.552l-10.792-7.474l-0.006-0.174
				c-0.267-8.474,4.74-12.775,15.308-13.149l0.358-0.013V55.72c0,1.158-0.637,2.211-1.663,2.749
				C47.167,58.7,46.669,58.822,46.17,58.822z M34.293,50.427l10.504,7.274c0.723,0.501,1.71,0.562,2.491,0.154
				c0.797-0.418,1.292-1.236,1.292-2.135V38.18C38.794,38.617,34.117,42.627,34.293,50.427z"/>
		</g>
		<g>
			<path fill="#545657" d="M52.359,71.09c-0.191,0-0.346-0.155-0.346-0.346v-1.02c0-0.191,0.155-0.346,0.346-0.346
				c0.191,0,0.346,0.155,0.346,0.346v1.02C52.705,70.935,52.55,71.09,52.359,71.09z"/>
		</g>
		<g>
			<path fill="#545657" d="M75.995,34.455H59.808c-0.191,0-0.346-0.155-0.346-0.346c0-0.191,0.155-0.346,0.346-0.346h16.187
				c0.191,0,0.346,0.155,0.346,0.346C76.341,34.3,76.186,34.455,75.995,34.455z"/>
		</g>
		<g>
			<g>
				<path fill="#545657" d="M30.11,33.421c-0.191,0-0.346-0.155-0.346-0.346c0-10.499,5.098-20.427,13.637-26.556
					c0.155-0.112,0.372-0.076,0.483,0.079c0.111,0.155,0.076,0.372-0.079,0.483c-8.358,6-13.349,15.717-13.349,25.994
					C30.457,33.266,30.302,33.421,30.11,33.421z"/>
			</g>
			<g>
				<path fill="#545657" d="M64.914,24.325c-0.15,0-0.288-0.098-0.332-0.249c-1.991-6.803-6.276-12.839-12.066-16.995
					c-0.155-0.112-0.191-0.328-0.079-0.483c0.111-0.156,0.328-0.192,0.483-0.079c5.915,4.246,10.293,10.412,12.327,17.363
					c0.054,0.184-0.052,0.376-0.235,0.43C64.979,24.321,64.946,24.325,64.914,24.325z"/>
			</g>
		</g>
		<g>
			<path fill="#545657" d="M54.296,69.021h-3.874c-0.191,0-0.346-0.155-0.346-0.346c0-0.191,0.155-0.346,0.346-0.346h3.874
				c0.191,0,0.346,0.155,0.346,0.346C54.642,68.866,54.487,69.021,54.296,69.021z"/>
		</g>
		<g>
			<path fill="#545657" d="M54.296,70.072h-3.874c-0.191,0-0.346-0.155-0.346-0.346c0-0.191,0.155-0.346,0.346-0.346h3.874
				c0.191,0,0.346,0.155,0.346,0.346C54.642,69.917,54.487,70.072,54.296,70.072z"/>
		</g>
	</g>
	<g>
		<path fill="#545657" d="M51.16,45.148c-0.089,0-0.177-0.034-0.245-0.101c-0.135-0.135-0.135-0.354,0-0.49l1.759-1.76
			c0.135-0.135,0.354-0.135,0.49,0c0.135,0.135,0.135,0.354,0,0.49l-1.759,1.76C51.337,45.114,51.248,45.148,51.16,45.148z"/>
	</g>
	<g>
		<path fill="#545657" d="M51.16,47.485c-0.089,0-0.177-0.034-0.245-0.101c-0.135-0.135-0.135-0.354,0-0.49l1.759-1.76
			c0.135-0.135,0.354-0.135,0.49,0c0.135,0.135,0.135,0.354,0,0.49l-1.759,1.76C51.337,47.451,51.248,47.485,51.16,47.485z"/>
	</g>
	<g>
		<path fill="#545657" d="M51.16,49.822c-0.089,0-0.177-0.034-0.245-0.101c-0.135-0.135-0.135-0.354,0-0.49l1.759-1.76
			c0.135-0.135,0.354-0.135,0.49,0c0.135,0.135,0.135,0.354,0,0.49l-1.759,1.76C51.337,49.788,51.248,49.822,51.16,49.822z"/>
	</g>
</g>
</svg>
