<?xml version="1.0" encoding="utf-8"?>
<!-- Generator: Adobe Illustrator 17.0.0, SVG Export Plug-In . SVG Version: 6.00 Build 0)  -->
<!DOCTYPE svg PUBLIC "-//W3C//DTD SVG 1.1//EN" "http://www.w3.org/Graphics/SVG/1.1/DTD/svg11.dtd">
<svg version="1.1" id="Layer_1" xmlns="http://www.w3.org/2000/svg" xmlns:xlink="http://www.w3.org/1999/xlink" x="0px" y="0px"
	 width="105px" height="75px" viewBox="0 0 105 75" enable-background="new 0 0 105 75" xml:space="preserve">
<g>
	<g>
		<path fill="#535557" d="M88.367,73.752c-4.173,0-7.567-3.395-7.567-7.568c0-1.568,0.476-3.071,1.376-4.345
			c0.137-0.193,0.405-0.24,0.598-0.103c0.194,0.137,0.24,0.405,0.103,0.598c-0.797,1.128-1.218,2.459-1.218,3.849
			c0,3.7,3.01,6.709,6.709,6.709c3.7,0,6.71-3.01,6.71-6.709c0-0.237,0.192-0.429,0.429-0.429c0.237,0,0.429,0.192,0.429,0.429
			C95.935,70.357,92.54,73.752,88.367,73.752z"/>
	</g>
	<g>
		<path fill="#535557" d="M74.428,52.241c-6.327,0-11.474-5.148-11.474-11.476c0-3.785,1.867-7.325,4.994-9.47
			c0.196-0.134,0.463-0.084,0.597,0.111c0.134,0.195,0.084,0.463-0.111,0.597c-2.893,1.985-4.621,5.26-4.621,8.762
			c0,5.854,4.762,10.617,10.616,10.617c0.498,0,1.001-0.035,1.494-0.105c0.232-0.035,0.452,0.13,0.485,0.365
			c0.033,0.235-0.131,0.452-0.365,0.485C75.509,52.203,74.966,52.241,74.428,52.241z"/>
	</g>
	<g>
		<path fill="#535557" d="M65.916,73.956H7.465l0.074-0.493c2.629-17.436,5.331-28.118,9.328-36.872
			c4.716-10.328,11.363-17.733,20.92-23.306c14.769-8.67,33.494-9.237,48.868-1.479c0.211,0.107,0.297,0.365,0.19,0.577
			c-0.106,0.212-0.364,0.297-0.577,0.19c-15.115-7.628-33.526-7.071-48.047,1.454c-9.397,5.48-15.934,12.763-20.573,22.922
			c-3.924,8.593-6.593,19.091-9.186,36.15h55.655c-7.163-9.27-7.577-20.988-1.057-31.523c0.124-0.202,0.389-0.263,0.591-0.139
			c0.202,0.125,0.264,0.389,0.139,0.591c-6.483,10.475-5.903,22.149,1.55,31.228L65.916,73.956z"/>
	</g>
	<g>
		<path fill="#535557" d="M7.963,73.93H1.237l-0.125-0.211c-2.157-3.655-0.93-9.127,1.584-12.105
			c-1.473-3.625-0.504-8.187,2.211-10.44c-0.611-2.829,0.101-6.82,2.667-9.331c-0.366-3.065,1.038-6.675,3.276-8.424
			c0.016-3.099,1.722-6.257,4.059-7.524c0.465-2.904,2.185-5.184,4.99-6.613c1.003-2.887,3.105-4.898,6.095-5.829
			c1.633-2.816,4.144-4.552,7.279-5.036c1.332-2.648,4.254-3.513,6.708-3.205c1.673-2.257,4.995-2.808,7.46-2.049
			c2.057-2.096,5.544-2.142,7.835-0.962c2.386-1.795,5.881-1.421,7.807,0.083c2.257-1.219,5.682-1.014,7.376,1.069
			c1.315-0.563,2.892-0.562,4.291,0.016c1.045,0.432,1.847,1.143,2.263,1.992c1.393-0.525,2.99-0.403,4.181,0.347
			c0.805,0.507,1.307,1.228,1.45,2.066c1.171-0.176,2.404,0.278,3.325,1.249c0.949,1.001,1.292,2.273,0.894,3.318
			c-0.084,0.222-0.332,0.332-0.554,0.249c-0.222-0.084-0.333-0.332-0.249-0.554c0.275-0.723-0.006-1.674-0.715-2.422
			c-0.649-0.685-1.767-1.282-2.958-0.901l-0.565,0.181L81.828,8.3c0.007-0.756-0.381-1.418-1.091-1.865
			c-1.051-0.662-2.565-0.71-3.768-0.12l-0.447,0.219l-0.151-0.475c-0.253-0.798-0.964-1.489-1.949-1.896
			c-1.269-0.524-2.763-0.482-3.9,0.109l-0.339,0.176l-0.215-0.316c-1.152-1.699-4.265-2.471-6.705-0.961L62.991,3.34l-0.239-0.214
			c-1.656-1.484-5.067-1.834-7.156-0.082l-0.231,0.194l-0.261-0.151c-2.058-1.193-5.401-1.206-7.215,0.855L47.697,4.16l-0.274-0.098
			c-2.204-0.787-5.463-0.304-6.883,1.849l-0.153,0.232l-0.274-0.045c-2.246-0.366-5.022,0.385-6.16,2.889l-0.099,0.217l-0.236,0.031
			c-3.021,0.404-5.429,2.06-6.961,4.79l-0.086,0.152l-0.167,0.049c-2.855,0.842-4.842,2.742-5.747,5.495L20.6,19.893l-0.162,0.08
			c-2.704,1.327-4.333,3.492-4.712,6.262l-0.031,0.227l-0.206,0.1c-2.217,1.08-3.841,4.115-3.779,7.061l0.005,0.225l-0.182,0.132
			c-2.16,1.561-3.512,5.057-3.079,7.96l0.033,0.224L8.32,42.318c-2.513,2.326-3.173,6.331-2.518,8.917l0.07,0.276l-0.227,0.172
			c-2.65,2.008-3.572,6.42-2.058,9.836l0.113,0.254L3.515,61.98c-2.382,2.644-3.629,7.675-1.783,11.091h6.231
			c0.237,0,0.429,0.192,0.429,0.429C8.393,73.737,8.2,73.93,7.963,73.93z"/>
	</g>
	<g>
		<path fill="#535557" d="M95.506,66.614c-0.237,0-0.429-0.192-0.429-0.429V17.897l7.026-9.095l-0.334,0.024
			c-5.283,0.376-9.455,0.673-15.104,3.738c-0.209,0.113-0.469,0.036-0.582-0.172c-0.113-0.208-0.036-0.469,0.172-0.582
			c5.812-3.154,10.066-3.456,15.452-3.84l2.25-0.165L95.935,18.19v47.995C95.935,66.421,95.743,66.614,95.506,66.614z"/>
	</g>
	<g>
		<path fill="#535557" d="M82.526,62.517c-0.143,0-0.282-0.071-0.364-0.2l-6.544-10.389c-0.126-0.201-0.066-0.466,0.134-0.592
			c0.201-0.126,0.466-0.066,0.592,0.134l6.544,10.389c0.126,0.201,0.066,0.466-0.134,0.592
			C82.684,62.495,82.604,62.517,82.526,62.517z"/>
	</g>
	<g>
		<path fill="#535557" d="M36.367,42.903c-0.031,0-0.062-0.003-0.093-0.01c-0.232-0.051-0.378-0.28-0.327-0.511
			c2.086-9.478,8.739-17.255,17.795-20.804c0.22-0.087,0.47,0.022,0.556,0.243c0.087,0.221-0.022,0.47-0.243,0.556
			c-8.789,3.445-15.245,10.992-17.27,20.189C36.742,42.767,36.564,42.903,36.367,42.903z"/>
	</g>
	<g>
		<g>
			<path fill="#535557" d="M92.655,68.135h-0.429c-1.457,0-2.643-1.19-2.643-2.652c0-1.458,1.186-2.644,2.643-2.644h0.429V68.135z
				 M91.796,63.75c-0.777,0.193-1.355,0.897-1.355,1.733c0,0.84,0.578,1.547,1.355,1.741V63.75z"/>
		</g>
	</g>
	<g>
		<path fill="#535557" d="M90.012,35.399c-1.248,0-2.263-1.015-2.263-2.263c0-1.247,1.015-2.261,2.263-2.261
			c1.247,0,2.261,1.014,2.261,2.261C92.273,34.384,91.259,35.399,90.012,35.399z M90.012,31.733c-0.774,0-1.405,0.629-1.405,1.403
			c0,0.774,0.63,1.405,1.405,1.405c0.774,0,1.403-0.63,1.403-1.405C91.415,32.363,90.785,31.733,90.012,31.733z"/>
	</g>
</g>
</svg>
